<svg xmlns="http://www.w3.org/2000/svg" viewBox="0 0 63.22 63.22"><defs><style>.cls-1{fill:#fff;}</style></defs><title>fb</title><g id="Layer_2" data-name="Layer 2"><g id="Layer_1-2" data-name="Layer 1"><path class="cls-1" d="M59.73,0H3.49A3.49,3.49,0,0,0,0,3.49V59.73a3.5,3.5,0,0,0,3.49,3.49H33.76V38.74H25.52V29.19h8.24v-7c0-8.16,5-12.61,12.28-12.61a66.6,66.6,0,0,1,7.36.38v8.52H48.34c-4,0-4.72,1.88-4.72,4.64v6.09h9.45l-1.23,9.53H43.62V63.22H59.73a3.5,3.5,0,0,0,3.49-3.49V3.49A3.49,3.49,0,0,0,59.73,0Zm0,0"/></g></g></svg>