<svg xmlns="http://www.w3.org/2000/svg" viewBox="0 0 106.68 111.97"><defs><style>.cls-1{fill:#93278f;}.cls-2{fill:#ff931e;}</style></defs><title>logo-mini</title><g id="Layer_2" data-name="Layer 2"><g id="Layer_1-2" data-name="Layer 1"><path class="cls-1" d="M93.11,79.7a22.65,22.65,0,0,1-6.34,15l-.12.13-.07.16c-.11.24-.54,1.51,1.73,2.66a14.5,14.5,0,0,1,6.19,5.8,26.88,26.88,0,0,1-33.46,0,14.68,14.68,0,0,1,6.25-5.78A2.75,2.75,0,0,0,68.83,96a1.93,1.93,0,0,0-.18-1.48l-.12-.15a22.78,22.78,0,0,1-6-14.63,13.52,13.52,0,0,1,.13-1.94,16,16,0,0,1,3.38-8A15.24,15.24,0,0,1,76.79,64c.24,0,.51,0,.76,0h.26C86.1,63.93,93.11,71.16,93.11,79.7Zm-15.3,15c5.87,0,10.3-7.42,10.3-17.26,0-3.69-6.81-5.7-10.3-5.7s-10.29,2-10.29,5.7C67.52,87.24,71.94,94.66,77.81,94.66Z"/><path class="cls-2" d="M81.86,53.73a41.39,41.39,0,0,0,1.73-11.94A41.8,41.8,0,1,0,13.65,72.7c.18-.25.36-.5.55-.74s.43-.53.66-.79A39.85,39.85,0,1,1,81.65,41.79a39.34,39.34,0,0,1-1.76,11.73l-.63,0c-.48,0-1,0-1.45,0A28.76,28.76,0,0,0,63.4,57.28c-1,.73-1.5,3.24-.07,2.32a26.79,26.79,0,0,1,14.48-4.22c.45,0,.89,0,1.35,0h.1a39.25,39.25,0,0,1-3.15,6.65l.53,0c.38,0,.77,0,1.17,0h.57a40.44,40.44,0,0,0,2.87-6.39A26.91,26.91,0,0,1,96,102.13c.21.35.42.72.6,1.09s.22.46.32.69A28.85,28.85,0,0,0,81.86,53.73Z"/><path class="cls-1" d="M67.49,37.51c0,8-3.74,17.38-9.58,23.89-.12.1-.22.2-.35.33l0,0,0,0-.1.12a2.8,2.8,0,0,0-.3,2.12,3.73,3.73,0,0,0,2.12,2.28,26.83,26.83,0,0,1,3.19,1.91c.51.35,1,.72,1.45,1.1a18,18,0,0,0-3.11,7.51,39.54,39.54,0,0,1-11.14,4.05l-.11,0-.78.15a40.09,40.09,0,0,1-32.37-8.52h0l-.07-.06a26.1,26.1,0,0,1,8-6.15A3.79,3.79,0,0,0,26.44,64a2.71,2.71,0,0,0-.29-2.07L26,61.8c-6-6.51-9.93-16.05-9.93-24.29,0-14.33,11.77-26.45,25.69-26.45S67.49,23.18,67.49,37.51ZM41.8,61.42c9.94,0,17.43-12.8,17.43-29.76,0-5.78-11.29-9.31-17.43-9.31s-17.44,3.54-17.44,9.31C24.36,48.63,31.85,61.42,41.8,61.42Z"/><path class="cls-1" d="M57.91,61.4l-.09.1-.23.26,0,0C57.69,61.61,57.8,61.5,57.91,61.4Z"/><path class="cls-1" d="M52.94,82.8c5,0,5.26,4.7,5.27,5.13-.08,1-2.14,25.15-23.85,24-22.93-1.22-24-21.93-24-22.14A26.33,26.33,0,0,1,15.12,74l.08.06a41.68,41.68,0,0,0,32.32,9.17A8.48,8.48,0,0,0,45.73,88a22.7,22.7,0,0,1-2.57,9l1.73.88A24.06,24.06,0,0,0,47.67,88s.12-3.42,2.75-4.71A5.39,5.39,0,0,1,51,83.1,6.15,6.15,0,0,1,52.94,82.8Z"/></g></g></svg>