<svg xmlns="http://www.w3.org/2000/svg" viewBox="0 0 139.08 63.57"><defs><style>.cls-1{fill:#9b4c24;}.cls-2{fill:#fbb03b;}.cls-3{fill:#b0ddf9;}</style></defs><title>redemptorists-logo</title><g id="Layer_2" data-name="Layer 2"><g id="Layer_1-2" data-name="Layer 1"><path class="cls-1" d="M21.66,48.45c-1,1.16-1.94,2.36-2.39,3l0,.06a15.62,15.62,0,0,1-1.84-1c1.2-1.6,2.59-3,3-3.1C20.36,47.36,20.69,47.42,21.66,48.45Z"/><path class="cls-1" d="M33.46,50.46a15.62,15.62,0,0,1-1.84,1l0-.06c-.45-.6-1.37-1.8-2.4-3,1-1,1.29-1.09,1.29-1.09C30.87,47.41,32.26,48.86,33.46,50.46Z"/><path class="cls-1" d="M30.67,51.87a14.52,14.52,0,0,1-10.5,0c.8-1.07,1.7-2.16,2.54-3.08h0a17.84,17.84,0,0,1,1.66-1.63h0l.14-.11a2.07,2.07,0,0,1,.87-.49h.05a2.1,2.1,0,0,1,.87.49l.14.11h0a18,18,0,0,1,1.65,1.63h0C29,49.71,29.87,50.81,30.67,51.87Z"/><path d="M35.8,1.6a2.77,2.77,0,0,0-2,.22c-.43,0-1.29,0-1.6.61a1.35,1.35,0,0,0,.18,1.29c-1.18,1.63-3.67,2.1-4.36,2.2a2.91,2.91,0,0,1-1.28-1.75C27.78,4,28.37,3.54,28.37,3s-.62-1-1.72-1.23C26.45.62,26,0,25.42,0s-1,.62-1.23,1.72c-1.1.2-1.72.63-1.72,1.23s.59,1,1.65,1.22a2.9,2.9,0,0,1-1.27,1.75c-.69-.1-3.18-.57-4.36-2.2a1.34,1.34,0,0,0,.18-1.29c-.31-.62-1.17-.63-1.6-.61a2.78,2.78,0,0,0-2-.22l-.69.23.45.56a58.21,58.21,0,0,1,4.74,7.95l.17.35.39-.07A30.83,30.83,0,0,1,25.4,10h0a30.81,30.81,0,0,1,5.31.59l.39.07.17-.35A58.43,58.43,0,0,1,36,2.4l.45-.56Zm-5.24,8A30.87,30.87,0,0,0,25.43,9h0a30.87,30.87,0,0,0-5.12.54,65.47,65.47,0,0,0-4.11-7,2.26,2.26,0,0,1,.51.2l.14.08H17a1.61,1.61,0,0,1,.77.06,1.3,1.3,0,0,1-.26.48l-.23.27.18.31c1.52,2.57,5.33,3,5.49,3l.18,0,.15-.1c2.15-1.47,1.89-3.14,1.88-3.21l-.06-.37-.38,0A3.28,3.28,0,0,1,23.59,3a3.3,3.3,0,0,1,1.1-.28l.4,0,0-.4a3.3,3.3,0,0,1,.28-1.1,3.3,3.3,0,0,1,.28,1.1l0,.4.4,0a3.3,3.3,0,0,1,1.1.28,3.28,3.28,0,0,1-1.1.28l-.38,0-.06.37c0,.07-.28,1.75,1.88,3.21l.15.1.18,0c.16,0,4-.41,5.49-3l.18-.31-.23-.27a1.28,1.28,0,0,1-.26-.48,1.62,1.62,0,0,1,.77-.06H34l.14-.08a2.2,2.2,0,0,1,.51-.21A65.79,65.79,0,0,0,30.55,9.56Z"/><path class="cls-2" d="M34.67,2.57a65.79,65.79,0,0,0-4.11,7A30.87,30.87,0,0,0,25.43,9h0a30.87,30.87,0,0,0-5.12.54,65.47,65.47,0,0,0-4.11-7,2.26,2.26,0,0,1,.51.2l.14.08H17a1.61,1.61,0,0,1,.77.06,1.3,1.3,0,0,1-.26.48l-.23.27.18.31c1.52,2.57,5.33,3,5.49,3l.18,0,.15-.1c2.15-1.47,1.89-3.14,1.88-3.21l-.06-.37-.38,0A3.28,3.28,0,0,1,23.59,3a3.3,3.3,0,0,1,1.1-.28l.4,0,0-.4a3.3,3.3,0,0,1,.28-1.1,3.3,3.3,0,0,1,.28,1.1l0,.4.4,0a3.3,3.3,0,0,1,1.1.28,3.28,3.28,0,0,1-1.1.28l-.38,0-.06.37c0,.07-.28,1.75,1.88,3.21l.15.1.18,0c.16,0,4-.41,5.49-3l.18-.31-.23-.27a1.28,1.28,0,0,1-.26-.48,1.62,1.62,0,0,1,.77-.06H34l.14-.08A2.2,2.2,0,0,1,34.67,2.57Z"/><path d="M13.87,37.83v5.08h.64V37.83Z"/><path d="M17.37,40.18l-.64-.24c-.5-.19-.74-.43-.74-.81a.8.8,0,0,1,.92-.82,1,1,0,0,1,1,1h.6a1.5,1.5,0,0,0-1.57-1.53,1.44,1.44,0,0,0-1.56,1.4c0,.66.38,1.09,1.13,1.39l.65.25c.46.18.79.43.79.83a.87.87,0,0,1-1,.8.93.93,0,0,1-1-.94h-.64A1.51,1.51,0,0,0,16.92,43a1.46,1.46,0,0,0,1.63-1.42C18.55,41,18.18,40.48,17.37,40.18Z"/><path d="M36.45,37.83l-1,1.79-.37.69-.73,1.35-.62-1.16-.38-.7-1.07-2h-.64v5.08h.64V39.14h0l.75,1.4.38.71.91,1.7,1-1.9.38-.71.65-1.21h0v3.76h.64V37.83Z"/><path d="M36.45,42l-.66-1.64-.3-.74-.73-1.79H34.2l-.8,2-.3.74-.77,1.89-.19.47h.7l.64-1.65.29-.75.71-1.84.64,1.64.29.75.72,1.84h.7Z"/><path class="cls-2" d="M48.94,60.58a11.55,11.55,0,0,1-5.49,1.9,7.89,7.89,0,0,0,2.19-3A6.3,6.3,0,0,0,48.94,60.58Z"/><path class="cls-2" d="M7.38,62.48a11.5,11.5,0,0,1-5.49-1.9,6.3,6.3,0,0,0,3.29-1.09A7.89,7.89,0,0,0,7.38,62.48Z"/><path d="M50.77,59.76a.5.5,0,0,0-.54-.25,5.7,5.7,0,0,1-4.22-1A12.36,12.36,0,0,0,46.6,55a.47.47,0,0,0,0-.15l0,0v0L44,49.5l0,0a3.24,3.24,0,0,0-1.88-1.4,2.09,2.09,0,0,0-1.7.47l0,0c-4.1,4.1-10,6.75-14.94,6.75s-10.84-2.65-14.94-6.75l0,0a2.08,2.08,0,0,0-1.7-.47,3.24,3.24,0,0,0-1.88,1.4l0,0L4.3,54.8h0v0l0,.05a.36.36,0,0,0,0,.08.35.35,0,0,0,0,.08h0a12.36,12.36,0,0,0,.59,3.46,5.69,5.69,0,0,1-4.22,1,.5.5,0,0,0-.47.83c2.71,3,7.29,3.23,8.79,3.23H9.5a.5.5,0,0,0,.24-.14h0l.05-.07,0,0,0,0a.34.34,0,0,0,0-.09v0a.51.51,0,0,0,0-.08.52.52,0,0,0,0-.19c-1.38-2.91-1.1-4.67-.81-5.45H9a25.56,25.56,0,0,0,16.41,5.46,25.56,25.56,0,0,0,16.41-5.46c.28.78.57,2.54-.81,5.45a.51.51,0,0,0,0,.27v0a.46.46,0,0,0,.07.17h0l0,0,0,0h0l.11.09,0,0,.09,0h.58c1.5,0,6.08-.26,8.79-3.23A.5.5,0,0,0,50.77,59.76ZM8.36,61.94C5.66,60,5.3,56.19,5.25,55.25h0c.25-.19.8-.45,1.59.21q.66.66,1.36,1.26h0C7.85,57.46,7.36,59.16,8.36,61.94ZM1.9,60.58a6.3,6.3,0,0,0,3.29-1.09,7.89,7.89,0,0,0,2.19,3A11.5,11.5,0,0,1,1.9,60.58Zm39.78-4.37h0a24.52,24.52,0,0,1-16.25,5.63A24.53,24.53,0,0,1,9.16,56.22q-.84-.7-1.63-1.49l0,0A2.54,2.54,0,0,0,5.87,54H5.79L7.73,50A2.19,2.19,0,0,1,8.92,49a1.1,1.1,0,0,1,.88.25c4.28,4.26,10.41,7,15.63,7s11.35-2.75,15.63-7a1.1,1.1,0,0,1,.87-.26,2.18,2.18,0,0,1,1.19.92L45.06,54a2.5,2.5,0,0,0-1.72.68l0,0Q42.51,55.52,41.68,56.21Zm.8,5.73c1-2.78.51-4.48.16-5.22q.7-.6,1.36-1.26c.79-.66,1.34-.4,1.59-.21C45.54,56.18,45.19,60,42.48,61.94Zm1,.53a7.89,7.89,0,0,0,2.19-3,6.3,6.3,0,0,0,3.29,1.09A11.55,11.55,0,0,1,43.45,62.48Z"/><path class="cls-1" d="M45.59,55.25c0,.93-.4,4.78-3.11,6.7,1-2.78.51-4.48.16-5.22q.7-.6,1.36-1.26C44.79,54.8,45.34,55.06,45.59,55.25Z"/><path class="cls-1" d="M8.36,61.94C5.66,60,5.3,56.19,5.25,55.25c.25-.19.8-.45,1.59.21q.66.66,1.36,1.26C7.85,57.46,7.36,59.16,8.36,61.94Z"/><path class="cls-2" d="M45.06,54a2.5,2.5,0,0,0-1.72.68l0,0q-.79.79-1.63,1.49h0a24.52,24.52,0,0,1-16.25,5.63A24.53,24.53,0,0,1,9.16,56.22q-.84-.7-1.63-1.49l0,0A2.54,2.54,0,0,0,5.87,54H5.79L7.73,50A2.19,2.19,0,0,1,8.92,49a1.1,1.1,0,0,1,.88.25c4.28,4.26,10.41,7,15.63,7s11.35-2.75,15.63-7a1.1,1.1,0,0,1,.87-.26,2.18,2.18,0,0,1,1.19.92Z"/><path d="M20.9,52.67"/><path d="M25.26,45.56a1.73,1.73,0,0,0-.35.1h0A1.59,1.59,0,0,1,25.26,45.56Z"/><path d="M9.88,52.71c.16-.23.15-.38.06-.46s-.58.12-.92.49-.66.81-.46,1,.38,0,.57-.15l.17.32a.68.68,0,0,1-1,.06c-.35-.32-.27-.75.4-1.47.34-.37.94-.92,1.43-.48a.63.63,0,0,1,.06.85Z"/><path d="M11.29,53c.48.38.11.95-.31,1.46s-.93,1-1.36.62-.11-1,.31-1.47S10.86,52.64,11.29,53ZM9.82,54.82c.2.16.51-.15.92-.66s.48-.81.35-.92-.4,0-.91.64C9.86,54.29,9.62,54.66,9.82,54.82Z"/><path d="M12,53.6l.29.21a.69.69,0,0,1,.17,1.09.69.69,0,0,1-1,.25l0,0-.56.79-.29-.2Zm-.45,1.26c.25.18.46,0,.62-.18s.18-.47,0-.63Z"/><path d="M13.16,54.39l.3.19-1.37,2.17-.3-.19Z"/><path d="M14.34,55c.53.3.26.92-.07,1.5s-.77,1.1-1.25.83-.26-.92.06-1.5S13.86,54.77,14.34,55Zm-1.16,2c.22.12.48-.23.8-.8s.34-.88.19-1-.39.07-.79.78C13.13,56.56,13,57,13.18,57.09Z"/><path d="M15.54,56.43c.07-.18.09-.35-.08-.43a.24.24,0,0,0-.32.14.64.64,0,0,0,0,.52l.14.38a.88.88,0,0,1,0,.77.59.59,0,0,1-.83.31.6.6,0,0,1-.29-.82l.35,0c-.08.22-.08.42.08.5a.28.28,0,0,0,.37-.17.69.69,0,0,0,0-.55l-.13-.37a.9.9,0,0,1,0-.75.58.58,0,0,1,.78-.3.54.54,0,0,1,.28.76Z"/><path d="M17.05,56.4,16.62,59l-.35-.14.11-.53-.52-.21-.29.45-.31-.13,1.47-2.17ZM16.44,58l.23-1.17h0l-.65,1Z"/><path d="M19.14,57.12,19,59.74l-.36-.11.05-.54-.54-.16-.25.48-.32-.1L18.8,57Zm-.45,1.69.12-1.19h0l-.55,1.06Z"/><path d="M19.89,57.32l.35.08a.69.69,0,0,1,.57.95c-.11.46-.4.73-.87.62h-.06l-.21.95-.35-.08Zm.06,1.34c.3.07.44-.13.5-.4s0-.5-.28-.56Z"/><path d="M22.1,59.71c-.08.52-.36.64-.71.58s-.58-.26-.5-.78l.31-1.91.35.06-.3,1.9c0,.16,0,.37.2.41s.28-.17.31-.33l.3-1.9.35.06Z"/><path d="M22.72,57.85l.41,0c.67.06.8.71.74,1.38s-.29,1.24-.94,1.18l-.44,0Zm.15,2.28c.42,0,.58-.38.63-.93s-.1-1-.45-1Z"/><path d="M26,58v.3H25.4v.75H26v.3h-.58v.91H26v.3h-.93L25,58Z"/><path d="M27.55,59.84c0,.53-.22.7-.56.72s-.62-.12-.65-.65L26.22,58l.36,0,.12,1.92c0,.16.06.37.28.35s.24-.22.23-.38l-.12-1.92.35,0Z"/><path d="M28.12,57.84l.75,1.62h0l.27-1.77.38-.05.36,2.54-.34,0-.24-1.69h0L29.09,60l-.27,0L28.2,58.7h0l.24,1.69-.33,0-.36-2.54Z"/><path d="M30.62,57.41l.56-.15a.65.65,0,0,1,.82.51.64.64,0,0,1-.26.73l.81,1.05-.39.1-.75-1-.08,0,.3,1.14-.34.09Zm.62,1c.34-.09.46-.23.39-.52a.36.36,0,0,0-.47-.27l-.12,0Z"/><path d="M33,56.71l.09.29-.55.18.23.71.55-.18.09.29-.55.18.28.86.55-.18.09.29-.89.29L32.09,57Z"/><path d="M33.19,56.64l.38-.15c.63-.25,1,.28,1.28.9s.31,1.24-.31,1.48l-.41.16Zm1.16,2c.4-.16.35-.6.14-1.11s-.53-.84-.87-.71Z"/><path d="M35.47,55.66l.13.27-.52.25.32.68.52-.25.13.27-.52.25.38.82.52-.25.13.27-.85.4-1.09-2.33Z"/><path d="M36,55.39l1.29,1.24h0l-.38-1.75.33-.19,1.25,2.24-.29.17-.83-1.49h0l.34,1.48-.24.13-1.08-1.07h0l.83,1.49-.29.17-1.25-2.24Z"/><path d="M37.49,54.52l.3-.2a.8.8,0,0,1,.93,1.3l0,0,.54.81-.3.2Zm1,.88c.26-.17.21-.41.05-.64s-.37-.34-.6-.18Z"/><path d="M39.08,53.82l-.36.27-.19-.26,1-.76.19.26-.36.27,1.35,1.79-.28.21Z"/><path d="M39.73,52.91l.27-.23,1.64,2-.27.23Z"/><path d="M40.71,52c.45-.42,1,0,1.4.52s.81,1.07.41,1.44-1,0-1.4-.52S40.3,52.36,40.71,52Zm1.59,1.73c.19-.17-.07-.53-.52-1s-.73-.6-.86-.48-.05.4.5,1C41.78,53.6,42.11,53.89,42.3,53.71Z"/><path d="M44.87,40.56a4.25,4.25,0,0,0-1.4,0h0c5.57-8.34,7.46-15.78,5.22-21.14l0,0a5,5,0,0,0-3.28-2.7,5.41,5.41,0,0,0-4.35,1,4.5,4.5,0,0,0-1.79,2.78,19,19,0,0,0-4.49-4.6h0A5,5,0,0,1,35.83,9a3.43,3.43,0,0,1,4.8.72,2.33,2.33,0,0,1-.49,3.26A1.54,1.54,0,0,1,38,12.62a1,1,0,0,1,.2-1.35.5.5,0,0,0-.6-.81,2,2,0,0,0-.42,2.76,2.54,2.54,0,0,0,3.56.53,3.34,3.34,0,0,0,.7-4.67,4.44,4.44,0,0,0-6.21-.93,6,6,0,0,0-2.13,6.67,16.11,16.11,0,0,0-3.68-1.5,15.51,15.51,0,0,0-4-.52,15.73,15.73,0,0,0-7.68,2h0a6,6,0,0,0-2.13-6.67,4.44,4.44,0,0,0-6.21.93,3.33,3.33,0,0,0,.7,4.67,2.54,2.54,0,0,0,3.56-.53,2,2,0,0,0-.41-2.76.5.5,0,1,0-.6.81,1,1,0,0,1,.2,1.35,1.54,1.54,0,0,1-2.15.32,2.33,2.33,0,0,1-.49-3.26A3.43,3.43,0,0,1,15,9a5,5,0,0,1,1.07,6.91h0a19,19,0,0,0-4.51,4.61,4.5,4.5,0,0,0-1.79-2.8,5.41,5.41,0,0,0-4.35-1,5,5,0,0,0-3.28,2.7l0,0c-2.25,5.36-.35,12.8,5.22,21.14h0a4.25,4.25,0,0,0-1.4,0A4.42,4.42,0,0,0,3,42.3a3.26,3.26,0,0,0,.69,4.56,2.49,2.49,0,0,0,3.48-.52,1.94,1.94,0,0,0-.41-2.7.5.5,0,1,0-.6.81.93.93,0,0,1,.19,1.29,1.49,1.49,0,0,1-2.07.31,2.26,2.26,0,0,1-.47-3.16,3.4,3.4,0,0,1,2.27-1.34,3.13,3.13,0,0,1,2.34.61q1.57,2.21,3.48,4.49h0a19.14,19.14,0,0,0,2,2.28h0l.1.12.1.08a17.38,17.38,0,0,0,5.2,3.46,15.58,15.58,0,0,0,6.12,1.25A16.9,16.9,0,0,0,39,46.5q1.83-2.19,3.35-4.33a3.13,3.13,0,0,1,2.34-.61A3.41,3.41,0,0,1,47,42.9a2.25,2.25,0,0,1-.47,3.16,1.49,1.49,0,0,1-2.07-.31.93.93,0,0,1,.2-1.29.5.5,0,0,0-.6-.81,1.93,1.93,0,0,0-.41,2.7,2.49,2.49,0,0,0,3.49.52,3.27,3.27,0,0,0,.68-4.56A4.42,4.42,0,0,0,44.87,40.56ZM3.05,19.87a4,4,0,0,1,2.6-2.16,4.45,4.45,0,0,1,3.52.79,3.23,3.23,0,0,1,1.14,4v0l0,.09,0,0-.05.09a2.08,2.08,0,0,1-2.87.65,1.36,1.36,0,0,1-.42-1.87A.5.5,0,1,0,6,21a2.37,2.37,0,0,0,.74,3.26,3.09,3.09,0,0,0,2.56.33,23.47,23.47,0,0,0-.28,16.71C.68,29.53,1.93,22.58,3.05,19.87ZM19.26,51.41l0,.06a15.62,15.62,0,0,1-1.84-1c1.2-1.6,2.59-3,3-3.1,0,0,.34.06,1.31,1.09-.51.58-1,1.17-1.41,1.69S19.49,51.1,19.26,51.41Zm6.16,1.45a14.53,14.53,0,0,1-5.25-1c.8-1.07,1.7-2.16,2.54-3.08h0a17.85,17.85,0,0,1,1.66-1.63h0l.14-.11a2.07,2.07,0,0,1,.87-.49h.05a1,1,0,0,1,.27.09,4,4,0,0,1,.6.4l.14.11h0a18,18,0,0,1,1.65,1.63h0c.42.46.85,1,1.28,1.48s.85,1.06,1.26,1.59A14.53,14.53,0,0,1,25.42,52.86Zm8.46-24.17V30.1H26.13V45.73l-.19-.08-.05,0a1.5,1.5,0,0,0-.3-.07h-.33a1.73,1.73,0,0,0-.35.1h0l-.19.08V30.1H17V28.69h7.75V20.1h1.41v8.59Zm-3,2.42-3.75,11v-11Zm-7.18,0v11L20,31.11Zm7.91,20.36,0-.06c-.45-.6-1.37-1.8-2.4-3l.33-.34.07-.07a5.54,5.54,0,0,1,.6-.52,1.05,1.05,0,0,1,.28-.16c.4.06,1.78,1.5,3,3.1A15.62,15.62,0,0,1,31.62,51.47Zm6.64-5.61-.13.15h0q-.93,1.1-2,2.26l-.09.1h0a17.41,17.41,0,0,1-1.77,1.49c-1-1.34-2.8-3.54-3.81-3.54-.35,0-.87.17-2,1.36a15.24,15.24,0,0,0-1.36-1.29V45.26L32,31.11h2.1a.84.84,0,0,0,.84-.84V28.51a.84.84,0,0,0-.84-.83h-.93l1.27-3.74.32.66a.5.5,0,0,0,.45.28.48.48,0,0,0,.22-.05.5.5,0,0,0,.23-.67l-.86-1.75h0l0-.08,0,0,0,0,0,0,0,0-.13-.05h-.25l-.09,0L32.34,23a.5.5,0,0,0,.22,1,.49.49,0,0,0,.22-.05l.66-.32-1.39,4.07H27.13V19.93a.84.84,0,0,0-.84-.83H24.54a.84.84,0,0,0-.84.83v7.75H18.78l-1.43-4.21.45-.15c.22-.08.79-.31.69-.83s-.72-.51-1-.5a6.66,6.66,0,0,0-1.1.14c-1.69.33-1.84.76-1.77,1.13s.22.5.91.5a5,5,0,0,0,.78-.07l1.36,4h-.93a.84.84,0,0,0-.83.83v1.76a.84.84,0,0,0,.83.84h2.1l4.82,14.16v1.16a15.5,15.5,0,0,0-1.37,1.28c-1.12-1.18-1.63-1.36-2-1.36-1,0-2.81,2.2-3.81,3.54a16.56,16.56,0,0,1-1.88-1.59q-1-1.15-2-2.26h0a21.4,21.4,0,0,1-4-12.68,21.85,21.85,0,0,1,2.41-10.09h0a3.27,3.27,0,0,0,.19-.35v0c3-5.44,8.21-9.05,14.14-9.05s11.11,3.57,14.09,9l0,.09v0a3.27,3.27,0,0,0,.19.35h0l0,.07,0,0a21.9,21.9,0,0,1,2.36,10A21.43,21.43,0,0,1,38.26,45.87ZM41.8,41.3a23.42,23.42,0,0,0-.28-16.67,3.08,3.08,0,0,0,2.55-.34A2.37,2.37,0,0,0,44.8,21a.5.5,0,1,0-.85.54,1.36,1.36,0,0,1-.42,1.87,2.08,2.08,0,0,1-2.85-.62l-.23-.43a3.25,3.25,0,0,1,1.2-3.88,4.45,4.45,0,0,1,3.52-.79,4,4,0,0,1,2.6,2.16C48.9,22.58,50.14,29.52,41.8,41.3Z"/><path class="cls-1" d="M33.88,28.69V30.1H26.13V45.73l-.19-.08-.05,0a1.5,1.5,0,0,0-.3-.07h-.33a1.59,1.59,0,0,0-.35.09l-.19.08V30.1H17V28.69h7.75V20.1h1.41v8.59Z"/><polygon class="cls-3" points="30.89 31.11 27.13 42.13 27.13 31.11 30.89 31.11"/><polygon class="cls-3" points="23.71 31.11 23.71 42.14 19.95 31.11 23.71 31.11"/><path class="cls-3" d="M39.83,23.36l0,0,0-.07h0a3.27,3.27,0,0,1-.19-.35v0l0-.09c-3-5.39-8.19-9-14.09-9s-11.16,3.61-14.14,9.05v0a3.27,3.27,0,0,1-.19.35h0A21.85,21.85,0,0,0,8.66,33.33a21.4,21.4,0,0,0,4,12.68h0q.93,1.1,2,2.26a16.56,16.56,0,0,0,1.88,1.59c1-1.34,2.79-3.54,3.81-3.54.35,0,.87.17,2,1.36a15.5,15.5,0,0,1,1.37-1.28V45.26L18.89,31.11h-2.1a.84.84,0,0,1-.83-.84V28.51a.84.84,0,0,1,.83-.83h.93l-1.36-4a5,5,0,0,1-.78.07c-.69,0-.86-.24-.91-.5s.08-.79,1.77-1.13a6.66,6.66,0,0,1,1.1-.14c.23,0,.85,0,1,.5s-.47.74-.69.83l-.45.15,1.43,4.21h4.92V19.93a.84.84,0,0,1,.84-.83H26.3a.84.84,0,0,1,.84.83v7.75h4.92l1.39-4.07-.66.32a.49.49,0,0,1-.22.05.5.5,0,0,1-.22-1l1.75-.86.09,0h.25l.13.05,0,0,0,0,0,0,0,0,0,.08h0l.86,1.75a.5.5,0,0,1-.23.67.48.48,0,0,1-.22.05.5.5,0,0,1-.45-.28l-.32-.66-1.27,3.74h.93a.84.84,0,0,1,.84.83v1.76a.84.84,0,0,1-.84.84H32L27.13,45.26v1.16a15.24,15.24,0,0,1,1.36,1.29c1.12-1.19,1.63-1.36,2-1.36,1,0,2.81,2.2,3.81,3.54a17.41,17.41,0,0,0,1.77-1.49h0l.09-.1q1-1.15,2-2.26h0l.13-.15a21.43,21.43,0,0,0,3.92-12.53A21.9,21.9,0,0,0,39.83,23.36ZM17.12,40.79l-.65-.25c-.75-.29-1.13-.73-1.13-1.39a1.44,1.44,0,0,1,1.56-1.4,1.5,1.5,0,0,1,1.57,1.53h-.6a1,1,0,0,0-1-1,.8.8,0,0,0-.92.82c0,.38.24.62.74.81l.64.24c.81.3,1.18.77,1.18,1.39A1.46,1.46,0,0,1,16.92,43a1.51,1.51,0,0,1-1.66-1.5h.64a.93.93,0,0,0,1,.94.87.87,0,0,0,1-.8C17.91,41.23,17.58,41,17.12,40.79Zm-2.61,2.11h-.64V37.83h.64Zm22.58,0h-1l-.72-1.84-1,1.9-.91-1.7-.64,1.65H31.68V37.83h.64l1.07,2,.8-2h.56l.73,1.79,1-1.79h.64Z"/><polygon class="cls-3" points="36.45 39.15 36.45 41.99 35.79 40.36 36.44 39.15 36.45 39.15"/><polygon class="cls-3" points="35.12 40.31 34.39 41.66 33.77 40.51 34.48 38.67 35.12 40.31"/><polygon class="cls-3" points="33.09 40.55 32.32 42.44 32.32 39.15 32.34 39.15 33.09 40.55"/><path d="M60.69,19.83a2.42,2.42,0,1,0,0,4.84,2.84,2.84,0,0,0,1.91-.81l.69.77a3.9,3.9,0,0,1-2.66,1.13,3.48,3.48,0,1,1,0-6.95,3.79,3.79,0,0,1,2.61,1.06l-.68.84A2.68,2.68,0,0,0,60.69,19.83Z"/><path d="M71,22.27a3.64,3.64,0,1,1-3.64-3.46A3.51,3.51,0,0,1,71,22.27Zm-6.1,0a2.46,2.46,0,0,0,2.47,2.44,2.43,2.43,0,1,0-2.47-2.44Z"/><path d="M73.41,18.83l3.68,4.94V18.83h1.14V25.7H77.09l-3.66-4.93V25.7H72.28V18.83Z"/><path d="M84.75,22.32h1v2.53a4.66,4.66,0,0,1-2.67.89,3.48,3.48,0,1,1,.07-6.95,4.12,4.12,0,0,1,2.64,1l-.66.85a3,3,0,0,0-2-.79,2.44,2.44,0,1,0,0,4.88,3.21,3.21,0,0,0,1.58-.47Z"/><path d="M91.76,25.7l-1.26-2.08H88.56V25.7H87.41V18.83h2.79c1.76,0,2.77.85,2.77,2.34a2.21,2.21,0,0,1-1.42,2.23l1.54,2.3Zm-1.57-3.11c1.06,0,1.67-.45,1.67-1.38s-.61-1.33-1.67-1.33H88.56v2.72Z"/><path d="M99.41,18.83v1H95.66v1.86H99v1H95.66v1.89h3.87v1h-5V18.83Z"/><path d="M105.64,22.32h1v2.53a4.66,4.66,0,0,1-2.67.89,3.48,3.48,0,1,1,.07-6.95,4.12,4.12,0,0,1,2.64,1l-.66.85a3,3,0,0,0-2-.79,2.44,2.44,0,1,0,0,4.88,3.21,3.21,0,0,0,1.58-.47Z"/><path d="M112.73,24.15h-3.46l-.66,1.55H107.4l3-6.87h1.19l3,6.87h-1.24Zm-.44-1L111,20.07l-1.29,3.05Z"/><path d="M118.43,19.83a2.42,2.42,0,1,0,0,4.84,2.84,2.84,0,0,0,1.91-.81l.69.77a3.9,3.9,0,0,1-2.66,1.13,3.48,3.48,0,1,1,0-6.95A3.79,3.79,0,0,1,121,19.86l-.68.84A2.68,2.68,0,0,0,118.43,19.83Z"/><path d="M123.37,18.83V25.7h-1.16V18.83Z"/><path d="M131.89,22.27a3.64,3.64,0,1,1-3.64-3.46A3.51,3.51,0,0,1,131.89,22.27Zm-6.1,0a2.46,2.46,0,0,0,2.47,2.44,2.43,2.43,0,1,0-2.47-2.44Zm4-5.15-1.2,1h-1l1-1.45Z"/><path d="M134.26,18.83l3.68,4.94V18.83h1.14V25.7h-1.14l-3.66-4.93V25.7h-1.16V18.83Z"/><path d="M64,33.35a3.4,3.4,0,0,1-3.58,3.43H57.63V29.92h2.82A3.38,3.38,0,0,1,64,33.35Zm-1.17,0a2.34,2.34,0,0,0-2.4-2.4H58.79v4.79h1.69A2.3,2.3,0,0,0,62.83,33.36Z"/><path d="M70.14,29.92v1H66.39v1.86h3.36v1H66.39v1.89h3.87v1h-5V29.92Z"/><path d="M72.84,29.92v5.82h3v1H71.68V29.92Z"/><path d="M82,31c-.68,0-1.12.25-1.12.72,0,1.5,3.71.7,3.7,3.17,0,1.23-1.08,2-2.59,2a4.23,4.23,0,0,1-2.81-1.09l.5-1a3.62,3.62,0,0,0,2.33,1c.8,0,1.29-.3,1.29-.83,0-1.53-3.71-.68-3.71-3.12,0-1.18,1-1.91,2.5-1.91a4.47,4.47,0,0,1,2.4.71l-.48,1A4.11,4.11,0,0,0,82,31Z"/><path d="M90.35,35.24H86.88l-.66,1.55H85l3-6.87h1.19l3,6.87H91Zm-.44-1-1.3-3.05-1.29,3.05Z"/><path d="M94.3,29.92,98,34.86V29.92h1.14v6.87H98l-3.66-4.93v4.93H93.16V29.92Z"/><path d="M105.62,29.92v1h-2.18v5.83h-1.16V31h-2.17v-1Z"/><path d="M108.74,28.2l-1.2,1h-1l1-1.45Zm-1,1.72v6.87h-1.16V29.92Z"/><path d="M111.75,31c-.68,0-1.12.25-1.12.72,0,1.5,3.71.7,3.7,3.17,0,1.23-1.08,2-2.59,2a4.23,4.23,0,0,1-2.81-1.09l.5-1a3.62,3.62,0,0,0,2.33,1c.8,0,1.29-.3,1.29-.83,0-1.53-3.71-.68-3.71-3.12,0-1.18,1-1.91,2.5-1.91a4.47,4.47,0,0,1,2.4.71l-.48,1A4.11,4.11,0,0,0,111.75,31Z"/><path d="M116.85,29.92v6.87h-1.16V29.92Z"/><path d="M120,29.92l2.27,4.56,2.26-4.56h1.36v6.87h-1.07V31.66l-2.17,4.42h-.76l-2.17-4.42v5.13h-1.09V29.92Z"/><path d="M134.45,33.35a3.64,3.64,0,1,1-3.64-3.46A3.51,3.51,0,0,1,134.45,33.35Zm-6.1,0a2.46,2.46,0,0,0,2.47,2.44,2.43,2.43,0,1,0-2.47-2.44Z"/><path d="M62,47.88,60.73,45.8H58.79v2.07H57.63V41h2.79c1.76,0,2.77.85,2.77,2.34a2.21,2.21,0,0,1-1.42,2.23l1.54,2.3Zm-1.57-3.11c1.06,0,1.67-.45,1.67-1.38s-.61-1.33-1.67-1.33H58.79v2.72Z"/><path d="M69.63,41v1H65.88v1.86h3.36v1H65.88v1.89h3.87v1h-5V41Z"/><path d="M77.53,44.44A3.4,3.4,0,0,1,74,47.88H71.17V41H74A3.38,3.38,0,0,1,77.53,44.44Zm-1.17,0a2.34,2.34,0,0,0-2.4-2.4H72.32v4.79H74A2.3,2.3,0,0,0,76.37,44.45Z"/><path d="M83.68,41v1H79.93v1.86h3.36v1H79.93v1.89H83.8v1h-5V41Z"/><path d="M86.35,41,90,45.95V41h1.14v6.87H90L86.37,43v4.93H85.22V41Z"/><path d="M97.68,41v1H95.5v5.83H94.35V42.05H92.18V41Z"/><path d="M105,44.44A3.64,3.64,0,1,1,101.34,41,3.51,3.51,0,0,1,105,44.44Zm-6.1,0a2.46,2.46,0,0,0,2.47,2.44,2.43,2.43,0,1,0-2.47-2.44Z"/><path d="M110.57,47.88l-1.26-2.08h-1.94v2.07h-1.16V41H109c1.76,0,2.77.85,2.77,2.34a2.21,2.21,0,0,1-1.42,2.23l1.54,2.3ZM109,44.77c1.06,0,1.67-.45,1.67-1.38s-.61-1.33-1.67-1.33h-1.63v2.72Z"/></g></g></svg>