<svg xmlns="http://www.w3.org/2000/svg" viewBox="0 0 300.43 111.97"><defs><style>.cls-1{fill:#ff931e;}.cls-2{fill:#93278f;}</style></defs><title>santa-ana-logo_1</title><g id="Layer_2" data-name="Layer 2"><g id="Layer_1-2" data-name="Layer 1"><path class="cls-1" d="M137.08,67.77h-3.91c0-.24,0-.46,0-.73,0-1.76-2.34-2.91-4.31-2.91-2.18,0-3.64.67-3.64,1.64,0,4.13,13.44,2.34,13.44,11.25,0,3.85-3.49,5.92-9.8,5.92a10,10,0,0,1-5.79-2l0,2.12L119.18,83V75.35h4.22c.24,2.43,3,3.94,5.49,3.94,2.37,0,3.49-.58,3.49-1.67,0-4.49-12.59-2.73-12.59-11,0-4,3.19-6.19,9.1-6.19a8.19,8.19,0,0,1,4.58,1.37l0-1.67,3.58.06Z"/><path class="cls-1" d="M158.62,79a8,8,0,0,0,1.7-.21l.79-.18L161,82.7,155,82.6l-1.21-2.09-7.31,2.27c-4.31,0-6.64-3.25-6.64-9.25s2.34-9.16,6.64-9.16l6.1,1.27,1.21-1.21,4.85-.09Zm-9.71-10.59c-2.06,0-3.19,1.27-3.19,5.13s1.12,5.52,3.19,5.52l3.64-.61V69Z"/><path class="cls-1" d="M170.42,66.56,178,64.13c4.88,0,6.67,2,6.67,7.43V79a14.12,14.12,0,0,0,2.37-.18l.73-.12-.06,4-6.07-.09-5.46.09-.06-3.91.73.09a14.76,14.76,0,0,0,1.76.15v-5.4c0-4.19-.91-5.73-3.34-5.73L171.36,69V79a14.76,14.76,0,0,0,1.76-.15l.73-.09-.06,3.91-5.46-.09-6.07.09-.06-4,.73.12a14.12,14.12,0,0,0,2.37.18V68.07a14.12,14.12,0,0,0-2.37.18l-.73.12.06-3.94,6.67-.3Z"/><path class="cls-1" d="M196.17,64.47l4.28-.06-.24,3.82-.42,0c-.79-.06-3-.12-3.58-.12v8.49c0,1.88,2,2.18,3.28,2.18l.09,3.64a10.39,10.39,0,0,1-3.43.55c-2.82,0-6-1.09-6-5V68.07c-.55,0-1.88.06-2.67.12l-.73.06.06-3.85,3.67.06.88-3.67h4.76Z"/><path class="cls-1" d="M219.86,79a8,8,0,0,0,1.7-.21l.79-.18-.06,4.09-6.07-.09L215,80.51l-7.31,2.27c-4.31,0-6.64-3.25-6.64-9.25s2.34-9.16,6.64-9.16l6.1,1.27L215,64.43l4.85-.09Zm-9.71-10.59c-2.06,0-3.19,1.27-3.19,5.13s1.12,5.52,3.19,5.52l3.64-.61V69Z"/><path class="cls-1" d="M247.5,72.44h3v3.4l-1.64,0,1,2.34c.24.58.36.76.82.76a10.6,10.6,0,0,0,1.33-.15L252,82.67l-6.83-.06-3.94.06-.06-3.91.73.09a15.2,15.2,0,0,0,1.79.15l-1.4-3.34c-.82,0-1.49,0-1.76,0-.58,0-3.06,0-5.49.09L233.6,79c.3,0,.88-.06,1.73-.12l.73-.06L236,82.67l-4-.06-4.19.06-.06-3.91a7.18,7.18,0,0,0,1.3.18c.55,0,.73-.24.94-.76l1-2.37-1.73,0V71.53s1.52.12,3.46.3L235,66.62a17.16,17.16,0,0,0,1.37-6.43l6.28.61Zm-7,0h.42l-2.18-5.28-2.18,5C238.12,72.35,239.61,72.44,240.49,72.44Z"/><path class="cls-1" d="M261.08,66.56l7.61-2.43c4.88,0,6.67,2,6.67,7.43V79a14.12,14.12,0,0,0,2.37-.18l.73-.12-.06,4-6.07-.09-5.46.09-.06-3.91.73.09a14.76,14.76,0,0,0,1.76.15v-5.4c0-4.19-.91-5.73-3.34-5.73L262,69V79a14.76,14.76,0,0,0,1.76-.15l.73-.09-.06,3.91L259,82.57l-6.07.09-.06-4,.73.12A14.12,14.12,0,0,0,256,79V68.07a14.12,14.12,0,0,0-2.37.18l-.73.12.06-3.94,6.67-.3Z"/><path class="cls-1" d="M297.94,79a8,8,0,0,0,1.7-.21l.79-.18-.06,4.09-6.07-.09-1.21-2.09-7.31,2.27c-4.31,0-6.64-3.25-6.64-9.25s2.34-9.16,6.64-9.16l6.1,1.27,1.21-1.21,4.85-.09Zm-9.71-10.59c-2.06,0-3.19,1.27-3.19,5.13s1.12,5.52,3.19,5.52l3.64-.61V69Z"/><path class="cls-2" d="M122.65,49.93l1.76,0c2,0,3.34,1.08,3.34,3s-1.29,3-3.34,3c-.63,0-1.25,0-1.87,0v1.54a5.73,5.73,0,0,0,1-.08l.3,0,0,1.63-2.48,0-2.48,0,0-1.62.3,0a5.72,5.72,0,0,0,1,.08v-6a5.59,5.59,0,0,0-.94.09l-.32.07,0-1.62Zm-.11,4.63h.72c1.41,0,2-.55,2-1.55s-.6-1.6-2-1.6h-.73Z"/><path class="cls-2" d="M135.95,57.46a3.32,3.32,0,0,0,.69-.09l.32-.08,0,1.67-2.48,0-.5-.86L131,59c-1.76,0-2.72-1.33-2.72-3.78s1-3.75,2.72-3.75l2.49.52.5-.5,2,0Zm-4-4.33c-.84,0-1.3.52-1.3,2.1s.46,2.26,1.3,2.26l1.49-.25V53.37Z"/><path class="cls-2" d="M145.49,54.79h-1.41c-.15-.93-.56-1.19-.91-1.19a.82.82,0,0,0-.55.21l-1.46,1.43v2.22a6.07,6.07,0,0,0,.72-.06l.3,0,0,1.6-2.23,0-2.48,0,0-1.62.3,0a5.72,5.72,0,0,0,1,.08V53a5.71,5.71,0,0,0-1,.07l-.3,0,0-1.63h2.23A1.34,1.34,0,0,1,141.16,53v.76l1.23-1.62a1.88,1.88,0,0,1,1.41-.88,8.08,8.08,0,0,1,1.69.15Z"/><path class="cls-2" d="M154.08,54.79h-1.41c-.15-.93-.56-1.19-.91-1.19a.82.82,0,0,0-.55.21l-1.46,1.43v2.22a6.07,6.07,0,0,0,.72-.06l.3,0,0,1.6-2.23,0L146,59l0-1.62.3,0a5.72,5.72,0,0,0,1,.08V53a5.71,5.71,0,0,0-1,.07l-.3,0,0-1.63h2.23A1.34,1.34,0,0,1,149.75,53v.76L151,52.12a1.88,1.88,0,0,1,1.41-.88,8.08,8.08,0,0,1,1.69.15Z"/><path class="cls-2" d="M158.59,59.07c-2.58,0-4-1.34-4-3.85s1.39-3.85,4-3.85,4,1.34,4,3.85S161.17,59.07,158.59,59.07Zm-.25-6.2c-.81,0-1.24.82-1.24,2.36s.61,2.36,1.74,2.36c.81,0,1.24-.82,1.24-2.36S159.47,52.87,158.34,52.87Z"/><path class="cls-2" d="M171.9,53.13l-.32-.07a5.7,5.7,0,0,0-.94-.09v7.47a5.71,5.71,0,0,0,1-.07l.3,0,0,1.63-2.48,0-1.36,0c0-.51.12-1,.12-1.5V58.89l-1.49,0c-2.08,0-3.47-1.51-3.47-3.78s1.39-3.78,3.47-3.78l5.21.12Zm-4.12-.22c-1.36,0-2.11.82-2.11,2.34s.74,2.3,2.11,2.3h.37V52.92Z"/><path class="cls-2" d="M181.19,53v4.47a5.81,5.81,0,0,0,1-.07l.3,0,0,1.61-2.73.12L179,58l-2.79,1.1c-2,0-2.73-.82-2.73-3V53a5.81,5.81,0,0,0-1,.07l-.3,0,0-1.62,2.48,0,1.36,0c0,.52-.12,1-.12,1.5v2.21c0,1.71.37,2.34,1.36,2.34l1.36-.51V53A6,6,0,0,0,178,53l-.3,0,0-1.6,2.23,0,1.36,0C181.31,52,181.19,52.49,181.19,53Z"/><path class="cls-2" d="M186.6,53v4.47a5.73,5.73,0,0,0,1-.08l.3,0,0,1.63-2.48,0-2.48,0,0-1.62.3,0a5.72,5.72,0,0,0,1,.08V53a5.71,5.71,0,0,0-1,.07l-.3,0,0-1.63,2.23,0,1.61,0C186.73,51.82,186.6,52.49,186.6,53Zm-1.24-4.4a1.05,1.05,0,1,1-1.05,1.05A1.05,1.05,0,0,1,185.36,48.59Z"/><path class="cls-2" d="M195.76,57.46a3.32,3.32,0,0,0,.69-.09l.32-.08,0,1.67-2.48,0-.5-.86-3,.93c-1.76,0-2.72-1.33-2.72-3.78s1-3.75,2.72-3.75l2.49.52.5-.5,2,0Zm-4-4.33c-.84,0-1.3.52-1.3,2.1s.46,2.26,1.3,2.26l1.49-.25V53.37Z"/><path class="cls-2" d="M205.92,49.93l1.65,0c2,0,3.34,1,3.34,2.67,0,1.46-1.15,2.39-2.84,2.62,1.54.25,2,1.48,2.85,1.48a2.43,2.43,0,0,0,.69-.19l0,2.48a3.93,3.93,0,0,1-1.3.25c-1.2,0-1.67-1-2.27-1.95a3.28,3.28,0,0,0-2-1.72l-.15,0v2a6.07,6.07,0,0,0,.72-.06l.3,0,0,1.6-2.23,0-2.48,0,0-1.62.3,0a5.72,5.72,0,0,0,1,.08v-6a5.59,5.59,0,0,0-.94.09l-.32.07,0-1.62Zm0,4.25h.72c1.14,0,1.76-.45,1.76-1.43s-.6-1.35-1.77-1.35h-.71Z"/><path class="cls-2" d="M219.8,54.63a5.23,5.23,0,0,1-.1,1l-5.19-.12c.07,1.36.76,2.11,2,2.11a2.54,2.54,0,0,0,2.08-1.15l1.29.76a4.3,4.3,0,0,1-3.62,1.89c-2.74,0-4.22-1.34-4.22-3.85s1.44-3.85,4.09-3.85C218.27,51.38,219.8,52.53,219.8,54.63Zm-5.2-.4h2.8a2.06,2.06,0,0,0,0-.27c0-1.05-.62-1.22-1.3-1.22S214.8,53.29,214.61,54.23Z"/><path class="cls-2" d="M228,51v6.48a3.32,3.32,0,0,0,.69-.09l.32-.08L229,59l-2.48,0-.5-.86-3,.93c-1.75,0-2.72-1.33-2.72-3.78s1-3.75,2.72-3.75l2.49.52V50.86l-1,0h-.33l.06-1.34,2.48,0,1.36,0C228.16,50,228,50.51,228,51Zm-4,6.5,1.49-.25V53.37l-1.49-.25c-.84,0-1.3.52-1.3,2.1S223.22,57.48,224.06,57.48Z"/><path class="cls-2" d="M237,54.63a5.23,5.23,0,0,1-.1,1l-5.19-.12c.07,1.36.76,2.11,2,2.11a2.54,2.54,0,0,0,2.08-1.15l1.29.76a4.3,4.3,0,0,1-3.62,1.89c-2.74,0-4.22-1.34-4.22-3.85s1.44-3.85,4.09-3.85C235.49,51.38,237,52.53,237,54.63Zm-5.2-.4h2.8a2.06,2.06,0,0,0,0-.27c0-1.05-.62-1.22-1.3-1.22S232,53.29,231.83,54.23Z"/><path class="cls-2" d="M240.91,52.37l3.11-1c2,0,2.73.82,2.73,3v3a5.72,5.72,0,0,0,1-.08l.3,0L248,59l-2.48,0-2.23,0,0-1.6.3,0a6.06,6.06,0,0,0,.72.06V55.25c0-1.71-.37-2.34-1.36-2.34l-1.61.47v4.08a6.07,6.07,0,0,0,.72-.06l.3,0,0,1.6-2.23,0-2.48,0,0-1.62.3,0a5.72,5.72,0,0,0,1,.08V53a5.71,5.71,0,0,0-1,.07l-.3,0,0-1.61,2.73-.12Z"/><path class="cls-2" d="M251.45,51.51l1.75,0-.1,1.56h-.17c-.32,0-1.24,0-1.46,0v3.47c0,.77.82.89,1.34.89l0,1.49a4.24,4.24,0,0,1-1.4.22c-1.15,0-2.46-.45-2.46-2.06V53c-.22,0-.77,0-1.09,0l-.3,0,0-1.58,1.5,0,.36-1.5h1.95Z"/><path class="cls-2" d="M257.42,59.07c-2.58,0-4-1.34-4-3.85s1.39-3.85,4-3.85,4,1.34,4,3.85S260,59.07,257.42,59.07Zm-.25-6.2c-.81,0-1.24.82-1.24,2.36s.61,2.36,1.74,2.36c.81,0,1.24-.82,1.24-2.36S258.3,52.87,257.17,52.87Z"/><path class="cls-2" d="M269.94,54.79h-1.41c-.15-.93-.56-1.19-.91-1.19a.82.82,0,0,0-.55.21l-1.46,1.43v2.22a6.07,6.07,0,0,0,.72-.06l.3,0,0,1.6-2.23,0-2.48,0,0-1.62.3,0a5.72,5.72,0,0,0,1,.08V53a5.71,5.71,0,0,0-1,.07l-.3,0,0-1.63h2.23A1.34,1.34,0,0,1,265.61,53v.76l1.23-1.62a1.88,1.88,0,0,1,1.41-.88,8.08,8.08,0,0,1,1.69.15Z"/><path class="cls-2" d="M274.2,53v4.47a5.73,5.73,0,0,0,1-.08l.3,0,0,1.63-2.48,0-2.48,0,0-1.62.3,0a5.72,5.72,0,0,0,1,.08V53a5.71,5.71,0,0,0-1,.07l-.3,0,0-1.63,2.23,0,1.61,0C274.32,51.82,274.2,52.49,274.2,53ZM273,48.59a1.05,1.05,0,1,1-1.05,1.05A1.05,1.05,0,0,1,273,48.59Z"/><path class="cls-2" d="M282.76,54H281.3c0-.66-.87-1.24-1.7-1.24s-1.24.19-1.24.55c0,1.3,5,.71,5,3.61,0,1.41-1.3,2.17-3.72,2.17a3.74,3.74,0,0,1-2.25-.81l0,.81-1.44,0V56.22h1.6c.1,1,1.09,1.49,2.12,1.49s1.36-.2,1.36-.56c0-1.24-4.84-.68-4.84-3.61,0-1.4,1.22-2.16,3.47-2.16a3,3,0,0,1,1.75.56l0-.56,1.33,0Z"/><path class="cls-2" d="M287.34,51.51l1.75,0-.1,1.56h-.17c-.32,0-1.24,0-1.46,0v3.47c0,.77.82.89,1.34.89l0,1.49a4.24,4.24,0,0,1-1.4.22c-1.15,0-2.46-.45-2.46-2.06V53c-.22,0-.77,0-1.09,0l-.3,0,0-1.58,1.5,0,.36-1.5h1.95Z"/><path class="cls-2" d="M297,57.46a3.32,3.32,0,0,0,.69-.09l.32-.08L298,59l-2.48,0-.5-.86-3,.93c-1.76,0-2.72-1.33-2.72-3.78s1-3.75,2.72-3.75l2.49.52.5-.5,2,0Zm-4-4.33c-.84,0-1.3.52-1.3,2.1s.46,2.26,1.3,2.26l1.49-.25V53.37Z"/><path class="cls-2" d="M93.11,79.7a22.65,22.65,0,0,1-6.34,15l-.12.13-.07.16c-.11.24-.54,1.51,1.73,2.66a14.5,14.5,0,0,1,6.19,5.8,26.88,26.88,0,0,1-33.46,0,14.68,14.68,0,0,1,6.25-5.78A2.75,2.75,0,0,0,68.83,96a1.93,1.93,0,0,0-.18-1.48l-.12-.15a22.78,22.78,0,0,1-6-14.63,13.52,13.52,0,0,1,.13-1.94,16,16,0,0,1,3.38-8A15.24,15.24,0,0,1,76.79,64c.24,0,.51,0,.76,0h.26C86.1,63.93,93.11,71.16,93.11,79.7Zm-15.3,15c5.87,0,10.3-7.42,10.3-17.26,0-3.69-6.81-5.7-10.3-5.7s-10.29,2-10.29,5.7C67.52,87.24,71.94,94.66,77.81,94.66Z"/><path class="cls-1" d="M81.86,53.73a41.39,41.39,0,0,0,1.73-11.94A41.8,41.8,0,1,0,13.65,72.7c.18-.25.36-.5.55-.74s.43-.53.66-.79A39.85,39.85,0,1,1,81.65,41.79a39.34,39.34,0,0,1-1.76,11.73l-.63,0c-.48,0-1,0-1.45,0A28.76,28.76,0,0,0,63.4,57.28c-1,.73-1.5,3.24-.07,2.32a26.79,26.79,0,0,1,14.48-4.22c.45,0,.89,0,1.35,0h.1a39.25,39.25,0,0,1-3.15,6.65l.53,0c.38,0,.77,0,1.17,0h.57a40.44,40.44,0,0,0,2.87-6.39A26.91,26.91,0,0,1,96,102.13c.21.35.42.72.6,1.09s.22.46.32.69A28.85,28.85,0,0,0,81.86,53.73Z"/><path class="cls-2" d="M67.49,37.51c0,8-3.74,17.38-9.58,23.89-.12.1-.22.2-.35.33l0,0,0,0-.1.12a2.8,2.8,0,0,0-.3,2.12,3.73,3.73,0,0,0,2.12,2.28,26.83,26.83,0,0,1,3.19,1.91c.51.35,1,.72,1.45,1.1a18,18,0,0,0-3.11,7.51,39.54,39.54,0,0,1-11.14,4.05l-.11,0-.78.15a40.09,40.09,0,0,1-32.37-8.52h0l-.07-.06a26.1,26.1,0,0,1,8-6.15A3.79,3.79,0,0,0,26.44,64a2.71,2.71,0,0,0-.29-2.07L26,61.8c-6-6.51-9.93-16.05-9.93-24.29,0-14.33,11.77-26.45,25.69-26.45S67.49,23.18,67.49,37.51ZM41.8,61.42c9.94,0,17.43-12.8,17.43-29.76,0-5.78-11.29-9.31-17.43-9.31s-17.44,3.54-17.44,9.31C24.36,48.63,31.85,61.42,41.8,61.42Z"/><path class="cls-2" d="M57.91,61.4l-.09.1-.23.26,0,0C57.69,61.61,57.8,61.5,57.91,61.4Z"/><path class="cls-2" d="M52.94,82.8c5,0,5.26,4.7,5.27,5.13-.08,1-2.14,25.15-23.85,24-22.93-1.22-24-21.93-24-22.14A26.33,26.33,0,0,1,15.12,74l.08.06a41.68,41.68,0,0,0,32.32,9.17A8.48,8.48,0,0,0,45.73,88a22.7,22.7,0,0,1-2.57,9l1.73.88A24.06,24.06,0,0,0,47.67,88s.12-3.42,2.75-4.71A5.39,5.39,0,0,1,51,83.1,6.15,6.15,0,0,1,52.94,82.8Z"/></g></g></svg>